<svg id="Layer_3" data-name="Layer 3" xmlns="http://www.w3.org/2000/svg" viewBox="0 0 256.63 130.99"><defs><style>.cls-1{fill:#c9234e;}.cls-2{fill:#fff;}</style></defs><path class="cls-1" d="M270.19,544.5A209.58,209.58,0,0,1,202.37,494a371,371,0,0,1,4.8,37.5h-148v55H207.24a367.5,367.5,0,0,1-4.87,38.5c9.93-13.47,31.16-38.22,66.82-53.5a159.08,159.08,0,0,1,46.62-12A206.07,206.07,0,0,1,270.19,544.5Z" transform="translate(-59.19 -494)"/><path class="cls-2" d="M88.5,546.74h11.7c7.6,0,10.43,2.83,10.43,6.67,0,2.6-1.12,4.77-3.83,5.47v0a5.55,5.55,0,0,1,4.8,5.81c0,4.58-2.79,7.53-10.66,7.53H88.5Zm12,10.59c1.86,0,2.9-.78,2.9-2.44s-1-2.56-3.21-2.56H96.83v5Zm.27,9.34a2.63,2.63,0,0,0,2.94-2.87c0-1.51-1-2.48-3.06-2.48h-3.8v5.35Z" transform="translate(-59.19 -494)"/><path class="cls-2" d="M113.93,546.74h18.76v6.36H122.26v4.34h7.8v4h-7.8v4.46H133v6.36H113.93Z" transform="translate(-59.19 -494)"/><path class="cls-2" d="M134.17,559.85c0-8.45,5.54-13.49,13.84-13.49,7.6,0,12.14,3.64,12.14,9.42,0,.58,0,1.32-.08,1.7H153.2a8.61,8.61,0,0,0,0-1c0-2.45-2.17-3.76-4.73-3.76-3.41,0-5.85,2.44-5.85,7.17s2.48,7,5.78,7c2.36,0,4.53-1.36,4.53-3.61V563h-5.58v-3.68h13v13h-6.4c0-.62.12-2.41.12-4h0c-.74,2.76-3.45,4.38-7.45,4.38C139.25,572.64,134.17,567.84,134.17,559.85Z" transform="translate(-59.19 -494)"/><path class="cls-2" d="M163.17,546.74h8.3v25.52h-8.3Z" transform="translate(-59.19 -494)"/><path class="cls-2" d="M174.64,546.74h11.6l7.25,14.58h.08l-.24-14.58h7.17v25.52H190.11l-8.56-17.18h0l.27,17.18h-7.14Z" transform="translate(-59.19 -494)"/></svg>