<svg id="Layer_1" data-name="Layer 1" xmlns="http://www.w3.org/2000/svg" viewBox="0 0 500 500"><defs><style>.cls-1{fill:#c9234e;}.cls-2{fill:#fff;}.cls-3{fill:#7c28ce;stroke:#fff;stroke-miterlimit:10;stroke-width:10px;}</style></defs><path class="cls-1" d="M250,495A245,245,0,0,1,76.76,76.76,245,245,0,1,1,423.24,423.24,243.37,243.37,0,0,1,250,495Z"/><path class="cls-2" d="M250,10a240.06,240.06,0,0,1,93.42,461.14A240.06,240.06,0,0,1,156.58,28.86,238.42,238.42,0,0,1,250,10m0-10C111.93,0,0,111.93,0,250S111.93,500,250,500,500,388.07,500,250,388.07,0,250,0Z"/><path class="cls-3" d="M223.83,356.69l7.26-29.29-24.78-25.69L224.81,271l-39.34-28.3,17.09-44-13.68-15.73,15-29.93c-.46-.55-1.05-1.28-1.65-2.06-16.45-21-35-34.31-56.36-40.46a84.75,84.75,0,0,0-29.23-3.33,124.27,124.27,0,0,0-16.14,2.62c-13.11,3.94-23.43,9.5-32.45,17.45C48.88,144.1,37.6,168.67,35.64,197.9a147.94,147.94,0,0,0,.77,28.53c3.82,32.32,17.68,55.28,44.38,73.49C94.66,309.39,108,315.76,139,327.79c20.69,8,26.41,10.45,36.71,15.68A252.73,252.73,0,0,1,215.2,368.2c13.64,10.48,31.41,31.63,32.39,31.89Z"/><path class="cls-3" d="M274.19,173,286,196.88l-32.63,31.5,26.1,42.55-23.61,21.7,11,34.14-17.52,25.39-1.74,47.93c1.18-.17,1.29-.29,2.89-2.83,6-9.58,18.74-21.21,37.94-34.72a298.16,298.16,0,0,1,31-19.34c12.24-6.66,19.05-9.72,42.52-19.13,18.8-7.53,28.09-11.62,37.67-16.67,16.06-8.46,27.7-17.31,37.5-28.51,8.16-9.29,14.88-22.05,18.57-35.26a178.31,178.31,0,0,0,3.8-21.83c3-31-3.09-57.31-17.93-78a82.89,82.89,0,0,0-35.24-28.51,83.85,83.85,0,0,0-22.76-6.14c-19.41-2.1-37.37,1.53-55.18,11.18a129.65,129.65,0,0,0-18.45,12.94A141,141,0,0,0,292,152.42Z"/></svg>