<svg id="Layer_1" data-name="Layer 1" xmlns="http://www.w3.org/2000/svg" viewBox="0 0 500 500"><defs><style>.cls-1{fill:#7c28ce;}.cls-2{fill:#fff;}.cls-3{fill:#ff315d;stroke:#fff;stroke-miterlimit:10;stroke-width:10px;}</style></defs><path class="cls-1" d="M250,495A245,245,0,0,1,76.76,76.76,245,245,0,1,1,423.24,423.24,243.37,243.37,0,0,1,250,495Z"/><path class="cls-2" d="M250,10a240.06,240.06,0,0,1,93.42,461.14A240.06,240.06,0,0,1,156.58,28.86,238.42,238.42,0,0,1,250,10m0-10C111.93,0,0,111.93,0,250S111.93,500,250,500,500,388.07,500,250,388.07,0,250,0Z"/><g id="Layer_1-2" data-name="Layer 1"><path class="cls-3" d="M428.35,192.88c-2.55-31-13.17-55.86-31.42-73.62a83,83,0,0,0-39.72-21.84,84.27,84.27,0,0,0-23.49-2c-19.47,1.36-36.51,8.1-52.33,20.75a130.54,130.54,0,0,0-15.89,16,140.78,140.78,0,0,0-14.2,22c-.58,1.1-1.16,1.94-1.3,1.85a29,29,0,0,1-2.06-3.56c-12.52-23.55-28.46-39.89-48.42-49.67a84.8,84.8,0,0,0-28.21-8.39A125.3,125.3,0,0,0,155,94.15c-13.6,1.59-24.74,5.26-35,11.51-21.84,13.28-37.23,35.5-44.26,63.94a146.81,146.81,0,0,0-4.22,28.23c-1.88,32.49,7.75,57.51,30.86,80.11,12,11.74,24,20.33,52.48,37.6,19,11.52,24.19,14.9,33.41,21.85a253.94,253.94,0,0,1,34.55,31.24c11.6,12.7,18.83,22.77,23.43,32.6,1.65,3.53,2,4,2.89,4.46a2.15,2.15,0,0,0,2.17.08c1.13-.37,1.22-.52,2.34-3.29,4.26-10.51,14.7-24.19,31.22-40.88a297.76,297.76,0,0,1,27.08-24.5c10.87-8.71,17-12.94,38.47-26.33,17.19-10.73,25.6-16.4,34.14-23.06,14.32-11.16,24.21-21.92,31.88-34.68,6.39-10.59,10.76-24.33,12.06-38A177.14,177.14,0,0,0,428.35,192.88Z"/></g></svg>