<?xml version="1.0" encoding="utf-8"?>
<!-- Generator: Adobe Illustrator 26.0.3, SVG Export Plug-In . SVG Version: 6.00 Build 0)  -->
<svg version="1.1" id="Layer_1" xmlns="http://www.w3.org/2000/svg" xmlns:xlink="http://www.w3.org/1999/xlink" x="0px" y="0px"
	 viewBox="0 0 430.1 430.1" style="enable-background:new 0 0 430.1 430.1;" xml:space="preserve">
<style type="text/css">
	.st0{fill:#FF315D;}
	.st1{fill:#FFFFFF;}
</style>
<rect class="st0" width="430.1" height="430.1"/>
<g>
	<path class="st1" d="M138.2,284.4c4.8-5,11.5-6.9,17.1-10.6c2.9-1.9,4.1-3.9,4.1-7.4c-0.2-15.2-0.2-30.5,0-45.7
		c0.1-4.1-1.3-5.1-5.3-5.1c-14.5,0.2-29.1,0.3-43.6,0c-4.4-0.1-5.6,1.3-5.5,5.5c0.2,16.4,0.1,32.8,0.1,49.2c0,3.9-0.1,7.4,4.9,3.1
		c1.4-1.2,3.2-1.4,4.2,0.5c0.9,1.6-0.8,2.4-1.9,3.2c-8.1,5.5-16.4,10.8-24.4,16.5c-3,2.2-5.4,0.7-7.9-0.1c-7.7-2.8-15-6.8-23.1-8.4
		c-15-3-28.9-1.4-39.8,10.6c-1.8,2-3.4,3-5.9,1.3c-3.2-2.3-0.8-4.2,0.4-5.8c14.8-20,34.9-26.3,58.8-22.3c8.4,1.4,16.4,3.8,24.2,7
		c3.2,1.3,4.6,1.2,4.6-2.8c-0.1-44-0.1-88.1-0.1-132.1c0-0.4-0.4-0.7-0.9-1.4c-2.8,0.7-4.3,3.2-6.4,4.9c-10,8.4-21.1,11.8-33.9,8.2
		c-6.8-1.9-13.5-3.8-20.3-5.8c-10.6-3.1-15.9-1.1-22.1,8.2c-1.1,3.3-1,6.6-0.1,9.8c1.3,3.5,3.5,6.1,7.1,7.2c1.1,0.5,2.1,1.5,1.3,2.5
		c-1.1,1.3-2.7,1-4.2,0.2c-4-2.8-8-5.7-8.4-11.2c-1-2.4-1-4.8,0-7.2c3.3-16.4,22.2-28.9,38.5-26.3c10.5,1.6,20.2,5.6,30.6,7.7
		c7,1.4,13.1,1,17.2-5.8c1.2-1.9,3-3.1,5.4-2.4c2.8,0.9,1.9,3.4,1.9,5.4c0,20.4,0.1,40.7-0.1,61.1c0,4.4,0.8,6.2,5.8,6.1
		c14.5-0.4,29.1-0.3,43.6,0c4.3,0.1,5.1-1.5,5-5.3c-0.2-13.3,0-26.7-0.1-40c-0.1-8.7-6.8-12.3-14.4-8.5c-2.4,1.2-5.5,5.7-7.6,2.1
		c-2.3-4,3.4-4.5,5.8-5.9c7.8-4.7,15.9-8.9,23.9-13.4c2.6-1.5,4.7-1.9,6.6,1c0.6,1,1.6,1.7,2.5,2.5c10.8,9.9,10.8,9.9,23.8,3
		c1.7-0.9,3.4-2.5,4.8-0.3c1.6,2.7-1.5,3-2.8,3.8c-4.7,3.1-9.4,6.2-14.4,8.7c-4.6,2.3-6,5.3-6,10.4c0.2,35.8,0,71.6-0.1,107.5
		c0,7.7,7.4,12.4,14.2,8.9c1.3-0.6,2.5-1.3,3.8-1.9c1.5-0.7,3.4-1.3,4.3,0.6c1,2.2-1.3,2.6-2.6,3.4c-8.8,4.9-17.7,9.7-26.3,14.8
		c-3.4,2-6,2-8.6-1c-1.1-1.2-2.3-2.3-3.4-3.5c-9.3-9.8-11.6-10-22.7-1.5c-1.1,0.6-2.4,0.8-3-0.3
		C136.2,285.8,137.1,284.9,138.2,284.4z"/>
	<path class="st1" d="M215,300.7c11.1-15.3,25.7-24.5,43.7-27.9c5.5-1.1,6.9-3.6,6.9-8.9c-0.2-33.7-0.1-67.5-0.1-101.2
		c0-10.3-3.4-14.3-13.7-15.1c-12.7-1-24.8,0.5-34.7,9.9c-1.3,1.3-2.8,3-4.8,1.3c-2.3-2,0.2-3.3,1.1-4.6
		c7.8-11.3,17.3-20.3,31.2-23.4c16.2-3.6,29.5,2.1,40.8,13.2c16.3,16.1,27.1,36.3,40.3,54.8c15.7,22,31,44.4,46.4,66.4
		c1.6-0.5,1.8-1.3,1.8-2.3c0-34.2-0.1-68.4,0.1-102.6c0-5.3-1.5-7.6-6.9-7.9c-6.1-0.4-12.2-1.9-17.3-5.2c-4.6-3-8-2.1-12.3,0.1
		c-4.6,2.4-8.8,6.2-15.2,5c0.5-2.2,1.8-3.4,3.6-4.4c10.7-5.8,21.4-11.6,31.9-17.7c3.5-2,6.2-2.3,9.5,0.4c13.4,11.3,33,13.2,46.6-0.1
		c1.7-1.7,3.7-2.8,6.6-0.7c-9.2,11.8-20.6,20.3-35.5,23.1c-4.8,0.9-5.8,2.5-5.8,7.1c0.2,42.9,0.1,85.7,0.1,128.6
		c0,2.2,1.4,5.2-1,6.5c-2.5,1.3-4.9-1-7-2.3c-9.5-5.7-15.8-14.6-21.7-23.6c-24.1-36.6-50.7-71.3-76-107c-0.8-1.1-1.8-2.1-2.7-3.2
		c-2.2,1.5-1.1,3.5-1.1,5.2c0,33.5,0.2,67-0.2,100.5c-0.1,5.8,1.7,7.3,7.1,6.8c6.6-0.6,13.2,0.7,19.2,3.4c4.9,2.1,8.3,1.3,12.1-1.9
		c3-2.5,6.6-4.5,9.9-6.7c1.6-1.1,3-1.1,4.1,0.7c1.2,1.9-0.5,2.4-1.6,3.2c-11,7.9-22.1,15.6-33,23.7c-3.4,2.5-5.8,0.6-8.3-0.7
		c-12.6-6.5-25.8-7.8-39.5-4.4c-6.7,1.7-12.6,5.1-17.2,10.3C220.5,301.1,218.6,303.1,215,300.7z"/>
	<path class="st1" d="M87.6,159.8c-5.9,7.8-5.8,16.6-5.7,25.5c0.2,15.7-0.5,31.4,0.2,47.1c0.5,11.2-4.7,18.2-13.8,23.1
		c-3.4,1.9-7.1,3.2-11.6,5.2c10.4-26.1,3.9-52.1,5.5-77.6C63,171.2,74.3,159.8,87.6,159.8z"/>
</g>
</svg>
