<svg xmlns="http://www.w3.org/2000/svg" viewBox="0 0 367.05 633.37"><defs><style>.cls-1{fill:#7c28ce;}.cls-2{fill:#ff315d;}.cls-3{fill:#c9234e;}.cls-4{fill:#fff;}</style></defs><g id="Shadow"><path class="cls-1" d="M641.1,201H372.78a43.4,43.4,0,0,0-43.4,43.41V779a43.4,43.4,0,0,0,43.4,43.41H641.1A43.41,43.41,0,0,0,684.51,779V244.36A43.41,43.41,0,0,0,641.1,201ZM657.39,756.6A43.4,43.4,0,0,1,614,800H376.55a43.41,43.41,0,0,1-43.41-43.4V244.94a43.41,43.41,0,0,1,43.41-43.41H614a43.4,43.4,0,0,1,43.4,43.41Z" transform="translate(-317.45 -189.03)"/></g><g id="Layer_4" data-name="Layer 4"><path class="cls-2" d="M629.43,189.28H361.11a43.4,43.4,0,0,0-43.41,43.4V767.32a43.4,43.4,0,0,0,43.41,43.4H629.43a43.4,43.4,0,0,0,43.4-43.4V232.68A43.4,43.4,0,0,0,629.43,189.28Zm28,567.32A43.4,43.4,0,0,1,614,800H376.55a43.41,43.41,0,0,1-43.41-43.4V244.94a43.41,43.41,0,0,1,43.41-43.41H614a43.4,43.4,0,0,1,43.4,43.41Z" transform="translate(-317.45 -189.03)"/><rect class="cls-3" x="88.88" y="12.51" width="177.87" height="21.96" rx="10.98"/><circle class="cls-1" cx="245.74" cy="23.48" r="5"/><rect class="cls-1" x="105.44" y="19.73" width="110.22" height="7.5" rx="3.75"/><path class="cls-4" d="M563.73,209a4.21,4.21,0,0,0-2.43,1.5c-.44.7-.93,1.8-1.36,2.52h-.1a2.38,2.38,0,0,1-.12-1.68,4.09,4.09,0,0,1,4-2.44v.1Z" transform="translate(-317.45 -189.03)"/><path class="cls-3" d="M614,201.68c-65.3,1.11-176.76,1.33-241.87,2.34a42.89,42.89,0,0,0-18.28,6.69,41.7,41.7,0,0,0-18.28,36.45c0,2,0,8.25,0,10.37.35,107.46.21,238.8-.33,345.87-.19,29.4-.75,124-1.18,152.18a43.18,43.18,0,0,0,18.3,36.53c.46.33,1,.61,1.44.92l1.46.9.72.46.77.38,3.07,1.52a46.59,46.59,0,0,0,16.72,3.56v.3a45.27,45.27,0,0,1-20.82-5.28A44,44,0,0,1,333,755.58c0-141.26-.16-342.62-.09-484.21,0-2.5,0-17.82,0-20.75v-3.46c0-1.16,0-2.31.06-3.47a43.59,43.59,0,0,1,33.78-41.24,51.53,51.53,0,0,1,12.07-1.15h13.83c0,.3,222-.5,221.36.37Z" transform="translate(-317.45 -189.03)"/><path class="cls-4" d="M672.73,232.68c.09-22-18.09-41.68-40.12-42.71-3.33-.18-10.23-.11-13.73-.07-74.18.6-183.79.54-257.76.8a41.89,41.89,0,0,0-41.24,35.1c-.72,3.56-.57,7.84-.59,11.51.37,153.36-.28,374.44-1,527.33a43.34,43.34,0,0,0,42.84,46v.2a43.76,43.76,0,0,1-28.84-11,43.15,43.15,0,0,1-14.62-31.26c-.14-6.68,0-20.61-.07-27.55,0-142.68-.08-360.68-.06-503.72,0-4.45,0-9.38,1-13.74,3.43-16.2,16.59-29.84,32.84-33.32,5.14-1.23,10.46-1.16,15.69-1.14h15.74l236.12,0c3.79.09,11.8-.21,15.74.34,15.8,1.68,29.92,12.92,35.45,27.75a44.22,44.22,0,0,1,2.86,15.43Z" transform="translate(-317.45 -189.03)"/><path class="cls-4" d="M376.55,799.9c65.34-.87,176.8-.66,242-1.43a43.31,43.31,0,0,0,18.73-6.83,42.66,42.66,0,0,0,18.7-37.27c0-2,0-8.25,0-10.37-.56-141.55.13-342.77.76-484.22-.06-7.17.84-20.26-1.65-27.33a43.38,43.38,0,0,0-19.69-25A44.24,44.24,0,0,0,614,201.63v-.2A43.61,43.61,0,0,1,657.51,246c0,141.26.1,342.62.06,484.21,0,2.73,0,17.66,0,20.75v3.46c0,1.16,0,2.31-.06,3.47A43.53,43.53,0,0,1,623.79,799a51.35,51.35,0,0,1-12,1.14H597.9c0-.2-221.75.33-221.35-.25Z" transform="translate(-317.45 -189.03)"/><path class="cls-3" d="M318,767.32c.21,21.63,18.34,41,40,41.84,3.26.16,10.22,0,13.66,0,74.33-1.2,181.76-2.11,255.8-2.37,13.55.36,26.09-5.49,33.95-16.66a39.2,39.2,0,0,0,7.09-19.83c.17-2,.13-5.52.13-7.56-.56-170.39.19-356.94,2.72-527.33a43,43,0,0,0-41.91-45.83V189a43.89,43.89,0,0,1,43.69,46.33c0,109.73.16,321,.21,432.88-.17,25,.25,77.79-.21,102.35a43.79,43.79,0,0,1-8,22.14c-10.17,14-24.66,19.25-41.6,18.41-74.79,0-184.86-.11-259.73-.13a43.89,43.89,0,0,1-46.33-43.69Z" transform="translate(-317.45 -189.03)"/></g></svg>