<svg id="Layer_7" data-name="Layer 7" xmlns="http://www.w3.org/2000/svg" viewBox="0 0 217.81 378.61"><defs><style>.cls-1,.cls-4{font-size:61.29px;fill:#fff;font-family:RocGrotesk-ExtraBold, Roc Grotesk;font-weight:800;}.cls-1{letter-spacing:-0.08em;}.cls-2{letter-spacing:-0.06em;}.cls-3{letter-spacing:0em;}.cls-5{letter-spacing:-0.11em;}.cls-6{letter-spacing:-0.02em;}.cls-7{fill:#ff315d;}.cls-8{fill:#c9234e;}</style></defs><text class="cls-1" transform="translate(24.91 173.61)">P<tspan class="cls-2" x="34.32" y="0">A</tspan><tspan class="cls-3" x="78.26" y="0">CK</tspan></text><text class="cls-4" transform="translate(0 234.11)">M<tspan class="cls-5" x="54.61" y="0">A</tspan><tspan class="cls-6" x="95.12" y="0">T</tspan><tspan x="129.68" y="0">CH</tspan></text><g id="Layer_1" data-name="Layer 1"><path class="cls-7" d="M247.86,78.85C247,68.37,243.41,60,237.23,53.93a28.2,28.2,0,0,0-21.4-8.07,31,31,0,0,0-17.71,7,42.92,42.92,0,0,0-5.37,5.41,47.34,47.34,0,0,0-4.81,7.45c-.2.37-.39.66-.44.63a10.42,10.42,0,0,1-.7-1.21c-4.24-8-9.63-13.5-16.39-16.81a28.83,28.83,0,0,0-9.54-2.84,45,45,0,0,0-5.53-.08,28.39,28.39,0,0,0-11.85,3.9c-7.39,4.5-12.6,12-15,21.64a48.87,48.87,0,0,0-1.43,9.56c-.64,11,2.62,19.46,10.44,27.11,4.07,4,8.12,6.88,17.77,12.73a112.86,112.86,0,0,1,11.3,7.39,86,86,0,0,1,11.7,10.57c3.92,4.3,6.37,7.71,7.93,11,.55,1.19.66,1.36,1,1.51a.75.75,0,0,0,.73,0c.38-.13.41-.18.79-1.12,1.44-3.55,5-8.19,10.57-13.84a102.25,102.25,0,0,1,9.16-8.29c3.68-3,5.77-4.38,13-8.91A127.21,127.21,0,0,0,233,111a42.33,42.33,0,0,0,10.79-11.74,31.45,31.45,0,0,0,4.08-12.86A59,59,0,0,0,247.86,78.85ZM239.29,88a26.82,26.82,0,0,1-3.5,11,36,36,0,0,1-9.25,10.07,108.93,108.93,0,0,1-9.91,6.68,96.41,96.41,0,0,0-11.16,7.64,89.6,89.6,0,0,0-7.87,7.11c-4.79,4.85-7.82,8.81-9,11.87-.33.8-.36.85-.68,1a.67.67,0,0,1-.63,0c-.26-.13-.36-.27-.84-1.3a38.07,38.07,0,0,0-6.8-9.45,72.74,72.74,0,0,0-10-9.07,97.76,97.76,0,0,0-9.69-6.34c-8.28-5-11.75-7.51-15.23-10.91-6.7-6.56-9.5-13.82-9-23.25a43,43,0,0,1,1.23-8.19c2-8.26,6.51-14.7,12.84-18.56A24.36,24.36,0,0,1,159.93,53a40,40,0,0,1,4.74.07,24.57,24.57,0,0,1,8.18,2.44c5.8,2.84,10.42,7.58,14.05,14.41a8.09,8.09,0,0,0,.6,1s.2-.21.38-.54A41,41,0,0,1,192,64a38.15,38.15,0,0,1,4.61-4.64,26.61,26.61,0,0,1,15.19-6,24.67,24.67,0,0,1,6.82.58,24.21,24.21,0,0,1,11.52,6.34c5.3,5.15,8.38,12.38,9.12,21.36A51.67,51.67,0,0,1,239.29,88Z" transform="translate(-78.6 -45.38)"/></g><g id="Layer_1-2" data-name="Layer 1"><path class="cls-8" d="M247.86,351.85c-.86-10.48-4.45-18.9-10.63-24.92a28.2,28.2,0,0,0-21.4-8.07,31,31,0,0,0-17.71,7,42.92,42.92,0,0,0-5.37,5.41,47.34,47.34,0,0,0-4.81,7.45c-.2.37-.39.66-.44.63a10.42,10.42,0,0,1-.7-1.21c-4.24-8-9.63-13.5-16.39-16.81a28.83,28.83,0,0,0-9.54-2.84,45,45,0,0,0-5.53-.08,28.39,28.39,0,0,0-11.85,3.9c-7.39,4.5-12.6,12-15,21.64a48.87,48.87,0,0,0-1.43,9.56c-.64,11,2.62,19.46,10.44,27.11,4.07,4,8.12,6.88,17.77,12.73a112.86,112.86,0,0,1,11.3,7.39,86,86,0,0,1,11.7,10.57c3.92,4.3,6.37,7.71,7.93,11,.55,1.19.66,1.36,1,1.51a.75.75,0,0,0,.73,0c.38-.13.41-.18.79-1.12,1.44-3.55,5-8.19,10.57-13.84a102.25,102.25,0,0,1,9.16-8.29c3.68-3,5.77-4.38,13-8.91A127.21,127.21,0,0,0,233,384a42.33,42.33,0,0,0,10.79-11.74,31.45,31.45,0,0,0,4.08-12.86A59,59,0,0,0,247.86,351.85ZM239.29,361a26.82,26.82,0,0,1-3.5,11,36,36,0,0,1-9.25,10.07,108.93,108.93,0,0,1-9.91,6.68,96.41,96.41,0,0,0-11.16,7.64,89.6,89.6,0,0,0-7.87,7.11c-4.79,4.85-7.82,8.81-9,11.87-.33.8-.36.85-.68,1a.67.67,0,0,1-.63,0c-.26-.13-.36-.27-.84-1.3a38.07,38.07,0,0,0-6.8-9.45,72.74,72.74,0,0,0-10-9.07,97.76,97.76,0,0,0-9.69-6.34c-8.28-5-11.75-7.51-15.23-10.91-6.7-6.56-9.5-13.82-9-23.25a43,43,0,0,1,1.23-8.19c2-8.26,6.51-14.7,12.84-18.56A24.36,24.36,0,0,1,159.93,326a40,40,0,0,1,4.74.07,24.57,24.57,0,0,1,8.18,2.44c5.8,2.84,10.42,7.58,14.05,14.41a8.09,8.09,0,0,0,.6,1s.2-.21.38-.54A41,41,0,0,1,192,337a38.15,38.15,0,0,1,4.61-4.64,26.61,26.61,0,0,1,15.19-6,24.67,24.67,0,0,1,6.82.58,24.21,24.21,0,0,1,11.52,6.34c5.3,5.15,8.38,12.38,9.12,21.36A51.67,51.67,0,0,1,239.29,361Z" transform="translate(-78.6 -45.38)"/></g></svg>